<svg xmlns="http://www.w3.org/2000/svg" width="1200" height="630" viewBox="0 0 1200 630">
  <defs>
    <linearGradient id="bg" x1="0" y1="0" x2="1" y2="1">
      <stop offset="0" stop-color="#262c36"/>
      <stop offset="1" stop-color="#1b2027"/>
    </linearGradient>
    <linearGradient id="solana" x1="0" y1="0" x2="1" y2="0">
      <stop offset="0" stop-color="#9945ff"/>
      <stop offset="1" stop-color="#14f195"/>
    </linearGradient>
  </defs>
  <rect width="1200" height="630" fill="url(#bg)"/>
  <rect x="90" y="70" width="1020" height="490" rx="22" fill="#12161c" stroke="#dfd0b826"/>
  <rect x="90" y="70" width="1020" height="54" rx="22" fill="#1b2129"/>
  <rect x="90" y="102" width="1020" height="22" fill="#1b2129"/>
  <circle cx="130" cy="97" r="8" fill="#ff5f57"/>
  <circle cx="156" cy="97" r="8" fill="#febc2e"/>
  <circle cx="182" cy="97" r="8" fill="#28c840"/>
  <text x="600" y="103" text-anchor="middle" font-family="ui-monospace, Menlo, monospace" font-size="17" fill="#dfd0b880">chainq v0.17.1 — zsh</text>
  <g font-family="ui-monospace, Menlo, monospace">
    <text x="130" y="176" font-size="22" fill="#f4e7c5">$ <tspan fill="#dfd0b8">chainq yields --asset usdc -l 5</tspan></text>
    <g font-size="20">
      <g fill="#7ddb8a">
        <text x="130" y="226">3.28%</text>
        <text x="130" y="270">4.26%</text>
        <text x="130" y="314">4.26%</text>
        <text x="130" y="358">3.41%</text>
        <text x="130" y="402">3.28%</text>
      </g>
      <g fill="#dfd0b8b0">
        <text x="215" y="226">lending</text>
        <text x="215" y="270">lending</text>
        <text x="215" y="314">vault</text>
        <text x="215" y="358">lending</text>
        <text x="215" y="402">lending</text>
      </g>
      <g fill="#dfd0b8">
        <text x="315" y="226">aave USDC [Ethereum]</text>
        <text x="315" y="270">morpho cbBTC/USDC</text>
        <text x="315" y="314">morpho Gauntlet USDC Prime</text>
        <text x="315" y="358">morpho cbBTC/USDC</text>
        <text x="315" y="402">morpho USDe/USDC</text>
      </g>
      <g fill="#dfd0b880">
        <text x="735" y="226">(ethereum)</text>
        <text x="735" y="270">(base)</text>
        <text x="735" y="314">(base)</text>
        <text x="735" y="358">(ethereum)</text>
        <text x="735" y="402">(base)</text>
        <text x="855" y="226">tvl</text>
        <text x="855" y="270">tvl</text>
        <text x="855" y="314">tvl</text>
        <text x="855" y="358">tvl</text>
        <text x="855" y="402">tvl</text>
      </g>
      <g fill="#f4e7c5">
        <text x="905" y="226">$2.13B</text>
        <text x="905" y="270">$1.41B</text>
        <text x="905" y="314">$426.09M</text>
        <text x="905" y="358">$295.90M</text>
        <text x="905" y="402">$242.52M</text>
      </g>
    </g>
    <text x="130" y="478" font-size="19" fill="#dfd0b86f"># sorted by TVL · $1M minimum TVL by default · use -s apy to rank by APY</text>
  </g>
  <rect x="130" y="516" width="13" height="24" fill="#f4e7c5">
    <animate attributeName="opacity" values="1;0;1" dur="1.2s" repeatCount="indefinite"/>
  </rect>
</svg>
